<svg width="301" height="347" viewBox="0 0 301 347" fill="none" xmlns="http://www.w3.org/2000/svg">
<rect x="0.0440674" y="46.1583" width="300" height="300" rx="150" fill="#FFBB55"/>
<path d="M151.794 92.4818L212.794 249.732C215.294 256.065 218.127 260.315 221.294 262.482C224.461 264.482 227.377 265.565 230.044 265.732V270.732C226.711 270.398 222.627 270.232 217.794 270.232C212.961 270.065 208.127 269.982 203.294 269.982C196.794 269.982 190.711 270.065 185.044 270.232C179.377 270.232 174.794 270.398 171.294 270.732V265.732C179.794 265.398 185.211 263.982 187.544 261.482C189.877 258.815 189.377 253.232 186.044 244.732L139.544 120.482L143.544 117.232L100.044 230.232C97.3774 236.898 95.7941 242.565 95.2941 247.232C94.7941 251.732 95.2107 255.315 96.5441 257.982C98.0441 260.648 100.461 262.565 103.794 263.732C107.294 264.898 111.627 265.565 116.794 265.732V270.732C112.127 270.398 107.211 270.232 102.044 270.232C97.0441 270.065 92.3774 269.982 88.0441 269.982C83.8774 269.982 80.2941 270.065 77.2941 270.232C74.4607 270.232 71.7941 270.398 69.2941 270.732V265.732C72.6274 264.898 76.0441 262.982 79.5441 259.982C83.0441 256.815 86.2107 251.482 89.0441 243.982L147.794 92.4818C148.461 92.4818 149.127 92.4818 149.794 92.4818C150.461 92.4818 151.127 92.4818 151.794 92.4818ZM182.294 198.732V203.732H107.794L110.294 198.732H182.294Z" fill="#EE5544"/>
</svg>
